<svg width="1899" height="1899" viewBox="0 0 1899 1899" fill="none" xmlns="http://www.w3.org/2000/svg">
<circle cx="949.5" cy="949.5" r="849.5" fill="#5F5DBF" stroke="#380B54" stroke-width="200"/>
<path d="M971.4 1341.61L771.317 1287.99L788.359 1451.99L902.633 1510.56L1104.21 1513.85L971.4 1341.61Z" fill="#9D9D9D"/>
<g filter="url(#filter0_d_49_47)">
<path d="M1162.38 377.172L1110.04 1534.56C1110.04 1534.56 820.305 1180.51 779.125 1357.38C737.945 1534.25 403.176 1319.28 403.176 1319.28L1162.38 377.172Z" fill="#D9D9D9"/>
</g>
<line x1="1162.73" y1="375.965" x2="411.984" y2="1327.07" stroke="black" stroke-width="24"/>
<line x1="1165.29" y1="369.218" x2="1098.38" y2="1534.61" stroke="black" stroke-width="24"/>
<path d="M790.375 1357.91C791.878 1351.46 787.864 1345.01 781.409 1343.5C774.954 1342 768.503 1346.01 767.001 1352.47L790.375 1357.91ZM401.873 1319.22C422.665 1337.34 505.905 1393.61 589.57 1423.21C631.276 1437.97 674.926 1446.78 711.594 1439.37C730.194 1435.61 747.222 1427.63 761.055 1413.99C774.872 1400.37 784.817 1381.78 790.375 1357.91L767.001 1352.47C762.263 1372.82 754.191 1387.06 744.206 1396.9C734.235 1406.73 721.676 1412.85 706.84 1415.84C676.637 1421.95 638.024 1414.9 597.575 1400.59C516.932 1372.06 436.297 1317.38 417.643 1301.12L401.873 1319.22Z" fill="black"/>
<path d="M790.736 1356.13C792.636 1349.78 789.028 1343.1 782.679 1341.2C776.329 1339.3 769.642 1342.91 767.743 1349.26L790.736 1356.13ZM1111.29 1510.94C1102.67 1510.79 1007.24 1517.1 920.217 1499.31C876.635 1490.4 837.312 1475.8 812.514 1452.95C800.313 1441.7 791.761 1428.58 787.72 1413.12C783.671 1397.62 783.925 1378.9 790.736 1356.13L767.743 1349.26C759.928 1375.38 759.133 1398.65 764.5 1419.19C769.876 1439.76 781.208 1456.73 796.248 1470.59C825.932 1497.95 870.522 1513.65 915.411 1522.82C960.652 1532.07 1007.98 1535.04 1044.69 1535.74C1063.1 1536.09 1078.92 1535.87 1090.59 1535.57C1096.43 1535.42 1101.23 1535.25 1104.77 1535.13C1106.55 1535.06 1107.98 1535.01 1109.08 1534.98C1109.62 1534.96 1110.06 1534.95 1110.39 1534.94C1110.55 1534.94 1110.68 1534.94 1110.77 1534.93C1110.87 1534.93 1110.9 1534.93 1110.89 1534.93L1111.29 1510.94Z" fill="black"/>
<path d="M958.105 903.399C960.692 897.298 957.844 890.254 951.742 887.666C945.641 885.079 938.597 887.927 936.01 894.029L958.105 903.399ZM615.236 1069.95C623.534 1078.56 639.477 1097.66 659.9 1114C680.508 1130.49 707.414 1145.74 739.362 1146.46C771.737 1147.2 806.808 1132.99 843.375 1095.54C879.742 1058.29 918.193 997.505 958.105 903.399L936.01 894.029C896.66 986.81 859.621 1044.54 826.203 1078.77C792.984 1112.79 763.974 1123.02 739.908 1122.47C715.414 1121.91 693.517 1110.16 674.895 1095.26C656.088 1080.21 642.375 1063.53 632.522 1053.3L615.236 1069.95Z" fill="black"/>
<path d="M960.79 904.853C963.485 898.798 960.761 891.705 954.706 889.01C948.652 886.315 941.559 889.039 938.864 895.093L960.79 904.853ZM1112.14 1241.26C1110.37 1241.08 1108.5 1241.24 1107.56 1241.33C1106.29 1241.44 1104.77 1241.62 1103.14 1241.82C1099.75 1242.23 1095.68 1242.78 1090.58 1243.37C1080.53 1244.54 1067.3 1245.81 1052.45 1246.06C1022.45 1246.58 987.241 1242.93 958.706 1227.32C931.014 1212.18 908.499 1185.21 903.89 1135.89C899.195 1085.66 913.112 1011.97 960.79 904.853L938.864 895.093C890.503 1003.74 874.739 1081.91 879.994 1138.13C885.334 1195.26 912.398 1229.35 947.188 1248.38C981.135 1266.95 1021.31 1270.6 1052.86 1270.06C1068.8 1269.79 1082.89 1268.43 1093.36 1267.21C1098.52 1266.61 1103.02 1266.01 1106.07 1265.64C1107.67 1265.44 1108.85 1265.31 1109.68 1265.23C1110.85 1265.13 1110.51 1265.23 1109.65 1265.14L1112.14 1241.26Z" fill="black"/>
<defs>
<filter id="filter0_d_49_47" x="399.177" y="373.173" width="791.203" height="1189.39" filterUnits="userSpaceOnUse" color-interpolation-filters="sRGB">
<feFlood flood-opacity="0" result="BackgroundImageFix"/>
<feColorMatrix in="SourceAlpha" type="matrix" values="0 0 0 0 0 0 0 0 0 0 0 0 0 0 0 0 0 0 127 0" result="hardAlpha"/>
<feOffset dx="12" dy="12"/>
<feGaussianBlur stdDeviation="8"/>
<feComposite in2="hardAlpha" operator="out"/>
<feColorMatrix type="matrix" values="0 0 0 0 0 0 0 0 0 0 0 0 0 0 0 0 0 0 0.25 0"/>
<feBlend mode="normal" in2="BackgroundImageFix" result="effect1_dropShadow_49_47"/>
<feBlend mode="normal" in="SourceGraphic" in2="effect1_dropShadow_49_47" result="shape"/>
</filter>
</defs>
</svg>
