<svg width="1024" height="1024" viewBox="0 0 1024 1024" fill="none" xmlns="http://www.w3.org/2000/svg">
<path d="M245.66 64.9259C241.602 66.3306 239.261 69.296 231.77 83.0305C226.775 92.0828 221.313 102.384 219.44 105.817C217.567 109.251 207.266 128.136 196.497 147.957C153.264 227.243 59.6202 399.392 30.5905 452.301L5.60517 498.192C1.94043 504.924 0.216122 512.54 0.624295 520.193C1.09252 530.65 1.87289 533.147 7.95976 543.604C11.7055 550.003 20.9139 566.235 28.2494 579.501C35.7409 592.767 49.3193 616.959 58.6837 633.347C67.8921 649.578 85.3724 680.949 97.7022 702.799C109.876 724.65 130.946 762.264 144.524 786.299C157.947 810.334 184.791 858.405 204.144 893.209C223.498 928.014 240.041 957.356 240.978 958.448C242.07 959.853 248.001 960.321 263.609 960.009C276.654 959.719 288.562 952.517 294.877 941.097L299.349 933.008C307.465 918.337 316.518 902.106 319.327 896.955C322.292 891.649 333.998 870.579 345.547 850.133C357.097 829.531 373.485 800.189 382.069 784.738C390.653 769.287 407.665 738.696 419.995 716.846C443.718 674.394 471.655 624.45 476.649 615.398C494.13 583.871 504.899 565.298 505.835 564.674C507.24 563.738 509.425 566.859 519.57 584.964C523.784 592.767 535.489 613.681 545.634 631.786C555.779 649.734 572.479 680.013 583.092 698.898C593.549 717.783 613.994 754.304 628.353 780.056C680.482 873.388 699.367 907.568 699.367 908.973C699.367 909.753 623.515 910.534 516.604 910.69L358.698 911.094C343.251 911.133 329.03 919.514 321.512 933.008C314.801 945.026 309.182 955.639 309.182 956.575C309.182 957.668 310.899 958.76 312.772 959.385C314.801 959.853 418.59 960.321 543.293 960.321C726.523 960.477 770.536 960.009 772.097 958.448C773.189 957.356 777.403 950.489 781.617 943.153C803.624 905.071 817.358 881.816 854.348 819.074C897.424 746.032 896.176 748.061 908.037 727.771C918.962 709.042 928.483 692.967 959.229 641.15C974.056 616.179 994.658 581.374 1005.12 563.738L1017.73 542.361C1021.84 535.409 1024 527.485 1024 519.413C1024 511.436 1021.91 503.598 1017.94 496.678L998.404 462.602C984.357 438.098 971.403 415.468 969.686 412.502C961.938 398.608 822.68 155.087 782.435 84.8409C775.188 72.1913 764.357 65.238 749.778 65.238C732.61 65.238 728.24 65.7063 727.148 67.5792C726.367 68.8278 721.685 77.2557 716.691 86.308C711.696 95.3603 697.65 120.644 685.32 142.495C673.146 164.345 652.701 200.866 640.059 223.653C627.417 246.44 605.566 285.302 591.676 310.274C577.785 335.09 552.969 379.571 536.582 409.069C520.194 438.41 506.303 461.978 505.679 461.353C505.055 460.729 494.598 442.156 482.424 420.306C470.094 398.456 444.966 353.506 426.55 320.419C339.773 164.969 312.304 115.494 312.304 114.245C312.304 112.528 308.09 112.528 509.737 112.841C602.445 112.997 680.326 112.528 682.667 112.06C686.1 111.124 689.066 107.066 698.742 89.8977C705.297 78.3483 711.072 67.5792 711.384 65.8624C712.165 62.897 708.263 62.897 481.488 63.053C325.414 63.2091 249.094 63.8334 245.66 64.9259ZM762.889 147.489C773.502 166.062 782.242 181.201 862.151 321.199C897.892 383.941 907.257 400.328 947.836 471.03C974.212 516.759 974.993 518.476 972.183 523.315C965.784 534.396 929.575 596.045 913.656 622.89C898.048 649.422 761.172 881.66 754.148 893.522C752.744 896.019 751.183 897.892 750.559 897.892C749.622 897.892 742.599 886.186 731.83 866.677C729.645 862.775 717.471 841.081 704.829 818.294C692.031 795.507 680.013 773.813 677.828 769.911C675.643 766.009 659.412 736.824 641.619 705.141C549.848 541.263 535.489 515.043 535.489 512.702C535.489 511.297 541.264 500.06 548.131 487.574C576.849 436.382 596.982 400.172 619.769 359.437C632.879 335.87 648.018 308.713 653.325 299.349C658.631 289.828 665.03 278.591 667.371 274.377C672.678 264.7 690.939 231.925 704.829 207.265C710.76 196.964 721.997 176.519 730.113 162.004C747.281 131.257 748.998 128.448 750.559 128.448C751.183 128.448 756.802 137.032 762.889 147.489ZM284.054 163.565C319.171 226.618 396.427 365.212 417.653 403.138C429.515 424.208 446.215 454.33 455.111 470.25C463.851 486.169 472.591 501.62 474.464 504.586C476.181 507.551 477.742 510.985 477.742 512.233C477.742 513.95 437.787 586.524 409.85 635.688C406.104 642.087 391.121 669.088 376.294 695.776C361.467 722.309 346.328 749.466 342.738 755.865C338.992 762.264 327.287 783.334 316.518 802.687C275.47 876.354 264.701 895.395 262.984 895.863C261.892 896.175 257.366 889.62 252.527 881.192C247.845 872.764 221.313 825.473 193.688 776.154C165.906 726.835 133.443 668.775 121.425 647.393C109.408 625.855 88.3378 588.397 74.6033 564.05L53.5047 526.364C51.1736 522.201 51.0097 517.164 53.0651 512.858C54.938 508.956 66.6435 487.105 79.2855 464.319C91.7714 441.376 106.442 414.531 111.749 404.699C117.055 394.866 127.824 375.201 135.472 360.998C143.12 346.795 156.23 322.916 164.346 307.933C192.127 256.741 225.995 194.623 243.787 162.16C255.181 141.402 262.204 130.009 263.609 130.321C264.701 130.633 273.909 145.46 284.054 163.565Z" fill="white"/>
</svg>
