<svg width="512" height="303" viewBox="0 0 512 303" fill="none" xmlns="http://www.w3.org/2000/svg">
<path d="M38.5919 0.551558C32.0919 2.05156 29.1919 4.05156 16.6919 16.3516C2.59189 30.2516 0.0918895 34.4516 0.0918895 44.9516C0.0918895 58.7516 -7.80811 49.9516 122.892 180.652C251.992 309.852 244.292 302.852 256.592 302.752C268.692 302.652 262.492 308.352 390.092 180.252C454.192 115.852 507.692 61.3516 509.092 59.0516C511.292 55.4516 511.592 53.8516 511.592 45.4516C511.592 36.9516 511.292 35.4516 508.892 31.4516C507.492 28.9516 500.892 21.7516 494.392 15.3516C480.492 1.65156 477.292 0.051558 465.892 0.651558C461.692 0.851558 456.892 1.85156 454.592 2.85156C451.792 4.15156 420.392 34.8516 353.292 101.852L256.092 198.952L158.792 101.752C81.4919 24.4516 60.6919 4.15156 57.0919 2.55156C51.4919 0.151558 43.7919 -0.648442 38.5919 0.551558Z" fill="white"/>
</svg>
