<svg width="1082" height="1068" viewBox="0 0 1082 1068" fill="none" xmlns="http://www.w3.org/2000/svg">
<path d="M22.7193 535.069C-22.7533 884.428 516.461 973.772 565.148 299.856M565.609 293.23C565.461 295.447 565.307 297.656 565.148 299.856M565.148 299.856C565.609 499.953 640.558 596.025 640.558 625.841" stroke="white" stroke-width="40" stroke-linecap="round" stroke-linejoin="round"/>
<path d="M229.969 758.354C323.818 588.074 512.82 1053.2 727.239 1026.7C873.226 1026.7 1100.68 880.267 1055.06 716.612" stroke="white" stroke-width="40" stroke-linecap="round"/>
<path d="M280.804 505.253C209.766 301.844 416.364 250.826 442.433 7C304.918 408.518 332.943 691.436 228.666 759.018" stroke="white" stroke-width="40" stroke-linecap="round"/>
<path d="M639.048 625.062C502.185 462.069 265.892 483.063 167.196 625.062C55.751 785.404 156.768 924.543 167.196 934.482C325.567 1123.31 566.055 1043.14 639.048 934.482C717.382 817.87 687.276 749.625 677.5 701.257" stroke="white" stroke-width="40" stroke-linecap="round"/>
</svg>
